<?xml version="1.0" encoding="UTF-8"?>
<svg xmlns="http://www.w3.org/2000/svg" viewBox="0 0 468 124">
  <defs>
    <linearGradient id="g" x1="14" y1="0" x2="454" y2="0" gradientUnits="userSpaceOnUse" color-interpolation="linearRGB">
      <stop offset="0%" stop-color="#80e2f3"/>
      <stop offset="6%" stop-color="#72cee7"/>
      <stop offset="20%" stop-color="#67badb"/>
      <stop offset="39%" stop-color="#5ea6cd"/>
      <stop offset="61%" stop-color="#5693bf"/>
      <stop offset="80%" stop-color="#507faf"/>
      <stop offset="94%" stop-color="#4a6c9f"/>
      <stop offset="100%" stop-color="#445a8e"/>
    </linearGradient>
    <linearGradient id="gs" x1="14" y1="0" x2="454" y2="0" gradientUnits="userSpaceOnUse" color-interpolation="linearRGB">
      <stop offset="0%" stop-color="#43767e"/>
      <stop offset="6%" stop-color="#3c6c78"/>
      <stop offset="20%" stop-color="#366172"/>
      <stop offset="39%" stop-color="#31576b"/>
      <stop offset="61%" stop-color="#2d4d63"/>
      <stop offset="80%" stop-color="#29435b"/>
      <stop offset="94%" stop-color="#263953"/>
      <stop offset="100%" stop-color="#232f4a"/>
    </linearGradient>
  </defs>
  <g fill="url(#g)">
    <rect x="38" y="14" width="8" height="12"/>
    <rect x="46" y="14" width="8" height="12"/>
    <rect x="54" y="14" width="8" height="12"/>
    <rect x="62" y="14" width="8" height="12"/>
    <rect x="70" y="14" width="8" height="12"/>
    <rect x="78" y="14" width="8" height="12"/>
    <rect x="86" y="14" width="8" height="12"/>
    <rect x="94" y="14" width="8" height="12"/>
    <rect x="102" y="14" width="8" height="12"/>
    <rect x="150" y="14" width="8" height="12"/>
    <rect x="158" y="14" width="8" height="12"/>
    <rect x="166" y="14" width="8" height="12"/>
    <rect x="174" y="14" width="8" height="12"/>
    <rect x="182" y="14" width="8" height="12"/>
    <rect x="198" y="14" width="8" height="12"/>
    <rect x="206" y="14" width="8" height="12"/>
    <rect x="214" y="14" width="8" height="12"/>
    <rect x="222" y="14" width="8" height="12"/>
    <rect x="230" y="14" width="8" height="12"/>
    <rect x="262" y="14" width="8" height="12"/>
    <rect x="270" y="14" width="8" height="12"/>
    <rect x="278" y="14" width="8" height="12"/>
    <rect x="286" y="14" width="8" height="12"/>
    <rect x="294" y="14" width="8" height="12"/>
    <rect x="374" y="14" width="8" height="12"/>
    <rect x="382" y="14" width="8" height="12"/>
    <rect x="390" y="14" width="8" height="12"/>
    <rect x="398" y="14" width="8" height="12"/>
    <rect x="406" y="14" width="8" height="12"/>
    <rect x="414" y="14" width="8" height="12"/>
    <rect x="422" y="14" width="8" height="12"/>
    <rect x="430" y="14" width="8" height="12"/>
    <rect x="438" y="14" width="8" height="12"/>
    <rect x="446" y="14" width="8" height="12"/>
    <rect x="30" y="26" width="8" height="12"/>
    <rect x="38" y="26" width="8" height="12"/>
    <rect x="46" y="26" width="8" height="12"/>
    <rect x="54" y="26" width="8" height="12"/>
    <rect x="62" y="26" width="8" height="12"/>
    <rect x="70" y="26" width="8" height="12"/>
    <rect x="78" y="26" width="8" height="12"/>
    <rect x="86" y="26" width="8" height="12"/>
    <rect x="94" y="26" width="8" height="12"/>
    <rect x="102" y="26" width="8" height="12"/>
    <rect x="110" y="26" width="8" height="12"/>
    <rect x="142" y="26" width="8" height="12"/>
    <rect x="150" y="26" width="8" height="12"/>
    <rect x="158" y="26" width="8" height="12"/>
    <rect x="166" y="26" width="8" height="12"/>
    <rect x="174" y="26" width="8" height="12"/>
    <rect x="190" y="26" width="8" height="12"/>
    <rect x="198" y="26" width="8" height="12"/>
    <rect x="206" y="26" width="8" height="12"/>
    <rect x="214" y="26" width="8" height="12"/>
    <rect x="222" y="26" width="8" height="12"/>
    <rect x="254" y="26" width="8" height="12"/>
    <rect x="262" y="26" width="8" height="12"/>
    <rect x="270" y="26" width="8" height="12"/>
    <rect x="278" y="26" width="8" height="12"/>
    <rect x="286" y="26" width="8" height="12"/>
    <rect x="366" y="26" width="8" height="12"/>
    <rect x="374" y="26" width="8" height="12"/>
    <rect x="382" y="26" width="8" height="12"/>
    <rect x="390" y="26" width="8" height="12"/>
    <rect x="398" y="26" width="8" height="12"/>
    <rect x="406" y="26" width="8" height="12"/>
    <rect x="414" y="26" width="8" height="12"/>
    <rect x="422" y="26" width="8" height="12"/>
    <rect x="430" y="26" width="8" height="12"/>
    <rect x="438" y="26" width="8" height="12"/>
    <rect x="446" y="26" width="8" height="12"/>
    <rect x="22" y="38" width="8" height="12"/>
    <rect x="30" y="38" width="8" height="12"/>
    <rect x="38" y="38" width="8" height="12"/>
    <rect x="46" y="38" width="8" height="12"/>
    <rect x="86" y="38" width="8" height="12"/>
    <rect x="94" y="38" width="8" height="12"/>
    <rect x="102" y="38" width="8" height="12"/>
    <rect x="110" y="38" width="8" height="12"/>
    <rect x="150" y="38" width="8" height="12"/>
    <rect x="158" y="38" width="8" height="12"/>
    <rect x="166" y="38" width="8" height="12"/>
    <rect x="174" y="38" width="8" height="12"/>
    <rect x="182" y="38" width="8" height="12"/>
    <rect x="198" y="38" width="8" height="12"/>
    <rect x="206" y="38" width="8" height="12"/>
    <rect x="214" y="38" width="8" height="12"/>
    <rect x="262" y="38" width="8" height="12"/>
    <rect x="270" y="38" width="8" height="12"/>
    <rect x="278" y="38" width="8" height="12"/>
    <rect x="286" y="38" width="8" height="12"/>
    <rect x="374" y="38" width="8" height="12"/>
    <rect x="382" y="38" width="8" height="12"/>
    <rect x="390" y="38" width="8" height="12"/>
    <rect x="398" y="38" width="8" height="12"/>
    <rect x="422" y="38" width="8" height="12"/>
    <rect x="438" y="38" width="8" height="12"/>
    <rect x="22" y="50" width="8" height="12"/>
    <rect x="30" y="50" width="8" height="12"/>
    <rect x="38" y="50" width="8" height="12"/>
    <rect x="46" y="50" width="8" height="12"/>
    <rect x="54" y="50" width="8" height="12"/>
    <rect x="62" y="50" width="8" height="12"/>
    <rect x="70" y="50" width="8" height="12"/>
    <rect x="78" y="50" width="8" height="12"/>
    <rect x="86" y="50" width="8" height="12"/>
    <rect x="94" y="50" width="8" height="12"/>
    <rect x="102" y="50" width="8" height="12"/>
    <rect x="110" y="50" width="8" height="12"/>
    <rect x="158" y="50" width="8" height="12"/>
    <rect x="166" y="50" width="8" height="12"/>
    <rect x="174" y="50" width="8" height="12"/>
    <rect x="182" y="50" width="8" height="12"/>
    <rect x="190" y="50" width="8" height="12"/>
    <rect x="198" y="50" width="8" height="12"/>
    <rect x="206" y="50" width="8" height="12"/>
    <rect x="262" y="50" width="8" height="12"/>
    <rect x="270" y="50" width="8" height="12"/>
    <rect x="278" y="50" width="8" height="12"/>
    <rect x="286" y="50" width="8" height="12"/>
    <rect x="374" y="50" width="8" height="12"/>
    <rect x="382" y="50" width="8" height="12"/>
    <rect x="390" y="50" width="8" height="12"/>
    <rect x="398" y="50" width="8" height="12"/>
    <rect x="406" y="50" width="8" height="12"/>
    <rect x="414" y="50" width="8" height="12"/>
    <rect x="422" y="50" width="8" height="12"/>
    <rect x="22" y="62" width="8" height="12"/>
    <rect x="30" y="62" width="8" height="12"/>
    <rect x="38" y="62" width="8" height="12"/>
    <rect x="46" y="62" width="8" height="12"/>
    <rect x="54" y="62" width="8" height="12"/>
    <rect x="62" y="62" width="8" height="12"/>
    <rect x="70" y="62" width="8" height="12"/>
    <rect x="78" y="62" width="8" height="12"/>
    <rect x="86" y="62" width="8" height="12"/>
    <rect x="94" y="62" width="8" height="12"/>
    <rect x="102" y="62" width="8" height="12"/>
    <rect x="110" y="62" width="8" height="12"/>
    <rect x="166" y="62" width="8" height="12"/>
    <rect x="174" y="62" width="8" height="12"/>
    <rect x="182" y="62" width="8" height="12"/>
    <rect x="190" y="62" width="8" height="12"/>
    <rect x="198" y="62" width="8" height="12"/>
    <rect x="206" y="62" width="8" height="12"/>
    <rect x="214" y="62" width="8" height="12"/>
    <rect x="262" y="62" width="8" height="12"/>
    <rect x="270" y="62" width="8" height="12"/>
    <rect x="278" y="62" width="8" height="12"/>
    <rect x="286" y="62" width="8" height="12"/>
    <rect x="374" y="62" width="8" height="12"/>
    <rect x="382" y="62" width="8" height="12"/>
    <rect x="390" y="62" width="8" height="12"/>
    <rect x="398" y="62" width="8" height="12"/>
    <rect x="406" y="62" width="8" height="12"/>
    <rect x="414" y="62" width="8" height="12"/>
    <rect x="422" y="62" width="8" height="12"/>
    <rect x="22" y="74" width="8" height="12"/>
    <rect x="30" y="74" width="8" height="12"/>
    <rect x="38" y="74" width="8" height="12"/>
    <rect x="46" y="74" width="8" height="12"/>
    <rect x="86" y="74" width="8" height="12"/>
    <rect x="94" y="74" width="8" height="12"/>
    <rect x="102" y="74" width="8" height="12"/>
    <rect x="110" y="74" width="8" height="12"/>
    <rect x="158" y="74" width="8" height="12"/>
    <rect x="166" y="74" width="8" height="12"/>
    <rect x="174" y="74" width="8" height="12"/>
    <rect x="190" y="74" width="8" height="12"/>
    <rect x="198" y="74" width="8" height="12"/>
    <rect x="206" y="74" width="8" height="12"/>
    <rect x="214" y="74" width="8" height="12"/>
    <rect x="222" y="74" width="8" height="12"/>
    <rect x="262" y="74" width="8" height="12"/>
    <rect x="270" y="74" width="8" height="12"/>
    <rect x="278" y="74" width="8" height="12"/>
    <rect x="286" y="74" width="8" height="12"/>
    <rect x="342" y="74" width="8" height="12"/>
    <rect x="374" y="74" width="8" height="12"/>
    <rect x="382" y="74" width="8" height="12"/>
    <rect x="390" y="74" width="8" height="12"/>
    <rect x="398" y="74" width="8" height="12"/>
    <rect x="414" y="74" width="8" height="12"/>
    <rect x="446" y="74" width="8" height="12"/>
    <rect x="22" y="86" width="8" height="12"/>
    <rect x="30" y="86" width="8" height="12"/>
    <rect x="38" y="86" width="8" height="12"/>
    <rect x="46" y="86" width="8" height="12"/>
    <rect x="54" y="86" width="8" height="12"/>
    <rect x="86" y="86" width="8" height="12"/>
    <rect x="94" y="86" width="8" height="12"/>
    <rect x="102" y="86" width="8" height="12"/>
    <rect x="110" y="86" width="8" height="12"/>
    <rect x="118" y="86" width="8" height="12"/>
    <rect x="150" y="86" width="8" height="12"/>
    <rect x="158" y="86" width="8" height="12"/>
    <rect x="166" y="86" width="8" height="12"/>
    <rect x="174" y="86" width="8" height="12"/>
    <rect x="182" y="86" width="8" height="12"/>
    <rect x="198" y="86" width="8" height="12"/>
    <rect x="206" y="86" width="8" height="12"/>
    <rect x="214" y="86" width="8" height="12"/>
    <rect x="222" y="86" width="8" height="12"/>
    <rect x="230" y="86" width="8" height="12"/>
    <rect x="262" y="86" width="8" height="12"/>
    <rect x="270" y="86" width="8" height="12"/>
    <rect x="278" y="86" width="8" height="12"/>
    <rect x="286" y="86" width="8" height="12"/>
    <rect x="294" y="86" width="8" height="12"/>
    <rect x="302" y="86" width="8" height="12"/>
    <rect x="310" y="86" width="8" height="12"/>
    <rect x="318" y="86" width="8" height="12"/>
    <rect x="326" y="86" width="8" height="12"/>
    <rect x="334" y="86" width="8" height="12"/>
    <rect x="342" y="86" width="8" height="12"/>
    <rect x="374" y="86" width="8" height="12"/>
    <rect x="382" y="86" width="8" height="12"/>
    <rect x="390" y="86" width="8" height="12"/>
    <rect x="398" y="86" width="8" height="12"/>
    <rect x="406" y="86" width="8" height="12"/>
    <rect x="414" y="86" width="8" height="12"/>
    <rect x="422" y="86" width="8" height="12"/>
    <rect x="430" y="86" width="8" height="12"/>
    <rect x="438" y="86" width="8" height="12"/>
    <rect x="446" y="86" width="8" height="12"/>
    <rect x="14" y="98" width="8" height="12"/>
    <rect x="22" y="98" width="8" height="12"/>
    <rect x="30" y="98" width="8" height="12"/>
    <rect x="38" y="98" width="8" height="12"/>
    <rect x="46" y="98" width="8" height="12"/>
    <rect x="78" y="98" width="8" height="12"/>
    <rect x="86" y="98" width="8" height="12"/>
    <rect x="94" y="98" width="8" height="12"/>
    <rect x="102" y="98" width="8" height="12"/>
    <rect x="110" y="98" width="8" height="12"/>
    <rect x="142" y="98" width="8" height="12"/>
    <rect x="150" y="98" width="8" height="12"/>
    <rect x="158" y="98" width="8" height="12"/>
    <rect x="166" y="98" width="8" height="12"/>
    <rect x="174" y="98" width="8" height="12"/>
    <rect x="190" y="98" width="8" height="12"/>
    <rect x="198" y="98" width="8" height="12"/>
    <rect x="206" y="98" width="8" height="12"/>
    <rect x="214" y="98" width="8" height="12"/>
    <rect x="222" y="98" width="8" height="12"/>
    <rect x="254" y="98" width="8" height="12"/>
    <rect x="262" y="98" width="8" height="12"/>
    <rect x="270" y="98" width="8" height="12"/>
    <rect x="278" y="98" width="8" height="12"/>
    <rect x="286" y="98" width="8" height="12"/>
    <rect x="294" y="98" width="8" height="12"/>
    <rect x="302" y="98" width="8" height="12"/>
    <rect x="310" y="98" width="8" height="12"/>
    <rect x="318" y="98" width="8" height="12"/>
    <rect x="326" y="98" width="8" height="12"/>
    <rect x="334" y="98" width="8" height="12"/>
    <rect x="366" y="98" width="8" height="12"/>
    <rect x="374" y="98" width="8" height="12"/>
    <rect x="382" y="98" width="8" height="12"/>
    <rect x="390" y="98" width="8" height="12"/>
    <rect x="398" y="98" width="8" height="12"/>
    <rect x="406" y="98" width="8" height="12"/>
    <rect x="414" y="98" width="8" height="12"/>
    <rect x="422" y="98" width="8" height="12"/>
    <rect x="430" y="98" width="8" height="12"/>
    <rect x="438" y="98" width="8" height="12"/>
  </g>
  <g fill="url(#gs)">
    <rect x="54" y="26" width="8" height="12"/>
    <rect x="62" y="26" width="8" height="12"/>
    <rect x="70" y="26" width="8" height="12"/>
    <rect x="78" y="26" width="8" height="12"/>
    <rect x="86" y="26" width="8" height="12"/>
    <rect x="142" y="26" width="8" height="12"/>
    <rect x="150" y="26" width="8" height="12"/>
    <rect x="190" y="26" width="8" height="12"/>
    <rect x="198" y="26" width="8" height="12"/>
    <rect x="254" y="26" width="8" height="12"/>
    <rect x="262" y="26" width="8" height="12"/>
    <rect x="366" y="26" width="8" height="12"/>
    <rect x="374" y="26" width="8" height="12"/>
    <rect x="406" y="26" width="8" height="12"/>
    <rect x="414" y="26" width="8" height="12"/>
    <rect x="422" y="26" width="8" height="12"/>
    <rect x="430" y="26" width="8" height="12"/>
    <rect x="438" y="26" width="8" height="12"/>
    <rect x="22" y="38" width="8" height="12"/>
    <rect x="86" y="38" width="8" height="12"/>
    <rect x="150" y="38" width="8" height="12"/>
    <rect x="158" y="38" width="8" height="12"/>
    <rect x="262" y="38" width="8" height="12"/>
    <rect x="374" y="38" width="8" height="12"/>
    <rect x="438" y="38" width="8" height="12"/>
    <rect x="22" y="50" width="8" height="12"/>
    <rect x="158" y="50" width="8" height="12"/>
    <rect x="166" y="50" width="8" height="12"/>
    <rect x="262" y="50" width="8" height="12"/>
    <rect x="374" y="50" width="8" height="12"/>
    <rect x="22" y="62" width="8" height="12"/>
    <rect x="54" y="62" width="8" height="12"/>
    <rect x="62" y="62" width="8" height="12"/>
    <rect x="70" y="62" width="8" height="12"/>
    <rect x="78" y="62" width="8" height="12"/>
    <rect x="86" y="62" width="8" height="12"/>
    <rect x="190" y="62" width="8" height="12"/>
    <rect x="262" y="62" width="8" height="12"/>
    <rect x="374" y="62" width="8" height="12"/>
    <rect x="406" y="62" width="8" height="12"/>
    <rect x="414" y="62" width="8" height="12"/>
    <rect x="22" y="74" width="8" height="12"/>
    <rect x="86" y="74" width="8" height="12"/>
    <rect x="190" y="74" width="8" height="12"/>
    <rect x="198" y="74" width="8" height="12"/>
    <rect x="262" y="74" width="8" height="12"/>
    <rect x="374" y="74" width="8" height="12"/>
    <rect x="414" y="74" width="8" height="12"/>
    <rect x="14" y="98" width="8" height="12"/>
    <rect x="22" y="98" width="8" height="12"/>
    <rect x="30" y="98" width="8" height="12"/>
    <rect x="38" y="98" width="8" height="12"/>
    <rect x="46" y="98" width="8" height="12"/>
    <rect x="78" y="98" width="8" height="12"/>
    <rect x="86" y="98" width="8" height="12"/>
    <rect x="94" y="98" width="8" height="12"/>
    <rect x="102" y="98" width="8" height="12"/>
    <rect x="110" y="98" width="8" height="12"/>
    <rect x="142" y="98" width="8" height="12"/>
    <rect x="150" y="98" width="8" height="12"/>
    <rect x="158" y="98" width="8" height="12"/>
    <rect x="166" y="98" width="8" height="12"/>
    <rect x="174" y="98" width="8" height="12"/>
    <rect x="190" y="98" width="8" height="12"/>
    <rect x="198" y="98" width="8" height="12"/>
    <rect x="206" y="98" width="8" height="12"/>
    <rect x="214" y="98" width="8" height="12"/>
    <rect x="222" y="98" width="8" height="12"/>
    <rect x="254" y="98" width="8" height="12"/>
    <rect x="262" y="98" width="8" height="12"/>
    <rect x="270" y="98" width="8" height="12"/>
    <rect x="278" y="98" width="8" height="12"/>
    <rect x="286" y="98" width="8" height="12"/>
    <rect x="294" y="98" width="8" height="12"/>
    <rect x="302" y="98" width="8" height="12"/>
    <rect x="310" y="98" width="8" height="12"/>
    <rect x="318" y="98" width="8" height="12"/>
    <rect x="326" y="98" width="8" height="12"/>
    <rect x="334" y="98" width="8" height="12"/>
    <rect x="366" y="98" width="8" height="12"/>
    <rect x="374" y="98" width="8" height="12"/>
    <rect x="382" y="98" width="8" height="12"/>
    <rect x="390" y="98" width="8" height="12"/>
    <rect x="398" y="98" width="8" height="12"/>
    <rect x="406" y="98" width="8" height="12"/>
    <rect x="414" y="98" width="8" height="12"/>
    <rect x="422" y="98" width="8" height="12"/>
    <rect x="430" y="98" width="8" height="12"/>
    <rect x="438" y="98" width="8" height="12"/>
  </g>
</svg>
